<svg width="153" height="28" viewBox="0 0 153 28" fill="none" xmlns="http://www.w3.org/2000/svg">
<path d="M149.531 19.8255C149.336 19.4373 149.045 18.9432 148.558 18.1755C148.274 17.6768 147.929 17.2146 147.532 16.7991C146.993 16.3919 146.397 16.065 145.764 15.8285C146.605 15.6311 147.399 15.2681 148.098 14.7608C149.01 14.1096 149.746 13.2425 150.238 12.2373C150.758 11.0772 151.023 9.81973 151.017 8.54908C151.066 7.12028 150.734 5.70407 150.053 4.44614C149.479 3.37567 148.537 2.54831 147.4 2.11672C145.86 1.62813 144.249 1.39853 142.633 1.43731H131.394V6.21084C132.27 5.68307 133.221 5.2904 134.215 5.04614C136.06 4.62141 137.957 4.45804 139.848 4.56084L141.501 3.29908L141.404 4.6579L142.571 3.39614C142.571 3.39614 142.766 3.68731 142.377 5.04614C142.377 5.04614 141.599 5.43437 142.474 6.21084L142.961 6.69614C143.091 6.83583 143.19 7.00113 143.252 7.18143C143.35 7.27849 143.544 7.37555 143.642 7.47261C144.137 7.99203 144.385 8.69917 144.322 9.41378C144.338 9.64455 144.305 9.87603 144.225 10.0932C144.631 11.2905 145.186 12.4319 145.879 13.4903C146.146 13.8473 146.104 14.3469 145.782 14.655C145.35 14.9613 144.958 15.32 144.614 15.7226C144.291 15.8326 143.936 15.7972 143.642 15.6255C143.642 15.6255 143.35 16.305 142.863 15.5285C142.863 15.5285 142.863 16.0138 142.377 14.8491C141.832 13.8358 141.026 12.9859 140.042 12.3873L139.459 12.0961H138.035V11.505C137.646 11.4079 137.354 11.3108 137.062 11.2138C136.957 11.3935 136.826 11.5569 136.673 11.6991C136.489 11.6005 136.324 11.4689 136.187 11.3108C135.56 10.9163 134.794 10.8083 134.083 11.014C133.371 11.2198 132.782 11.7197 132.464 12.3873C132.078 13.088 131.656 13.7684 131.199 14.4255V27.3873H138.035V16.7991H138.619C139.22 16.8005 139.803 17.0059 140.272 17.3814C140.826 17.9738 141.245 18.6779 141.501 19.4461L145.109 27.3873H152.785L149.531 19.8255Z" fill="#AB351B"/>
<path d="M109.326 0.963867H126.686V6.65238H115.755V10.8439H125.837V16.2875H115.755V21.5677H126.958V27.6463H109.232V0.963867H109.326Z" fill="#AB351B"/>
<path d="M88.2695 0.959717H94.9578V20.857H105.431V27.3873H88.2695V0.959717Z" fill="#AB351B"/>
<path d="M68.3047 0.959717H75.0194V20.857H85.4665V27.3873H68.3047V0.959717Z" fill="#AB351B"/>
<path d="M60.1663 14.4257C59.9871 14.5328 59.8243 14.6663 59.6831 14.8221C59.5391 14.6347 59.4098 14.4359 59.2965 14.2276C58.242 14.6282 57.2198 15.1131 56.2392 15.6778C55.9712 15.9696 55.6771 16.235 55.3607 16.4704L55.554 17.2631H54.57C54.2359 17.7125 53.9748 18.2144 53.7969 18.7493C53.4104 20.1364 53.3137 19.65 53.3137 19.65C52.8305 20.5507 52.5406 19.7491 52.5406 19.7491C52.2125 19.9232 51.831 19.9587 51.4776 19.8482C51.1185 19.3617 50.6958 18.9282 50.2213 18.5601C49.6415 18.0647 50.028 17.173 50.028 17.173C50.6628 15.9731 51.1807 14.712 51.5742 13.4079L52.1541 11.2281C52.2275 10.8262 52.3243 10.4292 52.444 10.0392L53.0238 7.76029L53.2171 8.7511L53.4104 8.55294C54.3767 7.56213 53.507 7.16581 53.507 7.16581C53.0238 5.58051 53.3137 5.28327 53.3137 5.28327L54.6667 6.6704L54.4822 5.02206L56.2392 6.50827C57.0093 6.40871 57.7885 6.40871 58.5586 6.50827L56.8015 0.96875H49.4482L41.2427 27.3873H48.0952L49.1583 23.0278H56.7839L57.8557 27.3873H64.884L60.7461 14.0294C60.5455 14.1499 60.3519 14.2822 60.1663 14.4257Z" fill="#AB351B"/>
<path d="M21.1104 0.959717H41.5272V7.49906H34.66V27.3873H28.004V7.49906H21.1368L21.1104 0.959717Z" fill="#AB351B"/>
<path d="M0 18.1799L6.4168 17.6831C6.44221 18.7091 6.74883 19.7072 7.30188 20.5644C7.93899 21.6269 9.10226 22.2396 10.32 22.1541C11.1399 22.2006 11.9446 21.915 12.5592 21.3592C13.0353 20.8477 13.3122 20.1765 13.3381 19.4715C13.3122 18.7665 13.0353 18.0954 12.5592 17.5838C11.5257 16.7822 10.3057 16.2686 9.01893 16.0934C6.13358 15.2715 3.99169 14.2147 2.72603 12.9231C1.42046 11.5396 0.718228 9.67639 0.778867 7.75667C0.727297 4.9384 2.23287 2.32995 4.6732 1.00957C6.34306 0.259806 8.16177 -0.0804615 9.98366 0.016023C12.8071 0.016023 14.9401 0.612152 16.4005 1.90376C17.8608 3.19538 18.7371 5.18247 19.0557 7.95538L12.692 8.45215C12.6236 7.48819 12.2294 6.57834 11.5768 5.87796C11.0552 5.23112 10.2518 4.89234 9.43491 4.97473C8.78999 4.91966 8.15089 5.13489 7.66476 5.57086C7.27701 5.96419 7.06564 6.50346 7.08061 7.06118C7.09666 7.47641 7.2714 7.86872 7.5674 8.15409C8.20596 8.69599 8.98279 9.04067 9.80665 9.14764C12.0062 9.65706 14.1308 10.4587 16.1261 11.5322C17.3228 12.2355 18.3012 13.2685 18.9495 14.5128C19.5504 15.7467 19.8538 17.1092 19.8346 18.487C19.853 20.1212 19.4501 21.7315 18.6663 23.1567C17.9075 24.5275 16.7967 25.6611 15.4534 26.4354C13.8102 27.2086 12.0137 27.5827 10.2049 27.5283C6.50531 27.5283 3.88548 26.6251 2.52247 24.9451C0.960977 23.0431 0.0724286 20.6601 0 18.1799Z" fill="#AB351B"/>
</svg>
