<svg width="24" height="22" viewBox="0 0 24 22" fill="none" xmlns="http://www.w3.org/2000/svg">
<path d="M17.625 0.499948C18.5078 0.499948 19.3359 0.667916 20.1094 1.00385C20.8828 1.33979 21.5586 1.79292 22.1367 2.36323C22.7148 2.93354 23.168 3.60932 23.4961 4.39057C23.8242 5.17182 23.9922 5.99995 24 6.87495C24 7.72651 23.8398 8.54292 23.5195 9.32417C23.1992 10.1054 22.7383 10.7929 22.1367 11.3867L12 21.5117L1.86328 11.3867C1.26953 10.7929 0.8125 10.1054 0.492188 9.32417C0.171875 8.54292 0.0078125 7.72651 0 6.87495C0 5.99995 0.164062 5.17573 0.492188 4.40229C0.820312 3.62885 1.27734 2.95307 1.86328 2.37495C2.44922 1.79682 3.125 1.33979 3.89062 1.00385C4.65625 0.667916 5.48438 0.499948 6.375 0.499948C7.02344 0.499948 7.60156 0.574166 8.10938 0.722604C8.61719 0.871041 9.08594 1.07417 9.51562 1.33198C9.94531 1.58979 10.3594 1.9062 10.7578 2.2812C11.1562 2.6562 11.5703 3.05854 12 3.48823C12.4297 3.05073 12.8398 2.64839 13.2305 2.2812C13.6211 1.91401 14.0352 1.60151 14.4727 1.3437C14.9102 1.08589 15.3828 0.878854 15.8906 0.722604C16.3984 0.566354 16.9766 0.492135 17.625 0.499948ZM21.0703 10.3203C21.5312 9.85932 21.8828 9.33198 22.125 8.73823C22.3672 8.14448 22.4883 7.52338 22.4883 6.87495C22.4883 6.19526 22.3633 5.56245 22.1133 4.97651C21.8633 4.39057 21.5195 3.87885 21.082 3.44135C20.6445 3.00385 20.1289 2.66401 19.5352 2.42182C18.9414 2.17964 18.3047 2.05464 17.625 2.04682C16.9688 2.04682 16.3867 2.14839 15.8789 2.35151C15.3711 2.55464 14.9023 2.82807 14.4727 3.17182C14.043 3.51557 13.6328 3.89448 13.2422 4.30854C12.8516 4.7226 12.4375 5.1562 12 5.60932C11.5781 5.18745 11.168 4.76167 10.7695 4.33198C10.3711 3.90229 9.95703 3.51557 9.52734 3.17182C9.09766 2.82807 8.625 2.54682 8.10938 2.32807C7.59375 2.10932 7.01562 1.99995 6.375 1.99995C5.70312 1.99995 5.07031 2.12495 4.47656 2.37495C3.88281 2.62495 3.36719 2.9726 2.92969 3.41792C2.49219 3.86323 2.14453 4.38276 1.88672 4.97651C1.62891 5.57026 1.5 6.20307 1.5 6.87495C1.5 7.52338 1.62109 8.14448 1.86328 8.73823C2.10547 9.33198 2.46094 9.85932 2.92969 10.3203L12 19.3906L21.0703 10.3203Z" fill="white"/>
</svg>
